# xmcd
#
# Track frame offsets: 
#        150
#        4470
#        36191
#        53706
#        90116
#        126837
#        146811
#        168640
#        199614
#        238534
#
# Disc length: 3186 seconds
#
# Revision: 0
# Processed by: cddbd v1.5.2PL0 Copyright (c) Steve Scherf et al.
# Submitted via: ExactAudioCopy v0.99pb4
#
DISCID=820c700a
DTITLE=Albino - Peralta House
DYEAR=2009
DGENRE=Funk
TTITLE0=Bade
TTITLE1=Speak
TTITLE2=No Face Enemy: Act 1
TTITLE3=No Face Enemy: Act 2
TTITLE4=Feel Alright (radio edit)
TTITLE5=La Koolie
TTITLE6=Steppin'
TTITLE7=Peralta House
TTITLE8=P-Slap
TTITLE9=Hidden Track
EXTD=
EXTT0=
EXTT1=
EXTT2=
EXTT3=
EXTT4=
EXTT5=
EXTT6=
EXTT7=
EXTT8=
EXTT9=
PLAYORDER=
